<svg width="36" height="36" viewBox="0 0 36 36" fill="none" xmlns="http://www.w3.org/2000/svg">
<path d="M0 4C0 1.79086 1.79086 0 4 0H32C34.2091 0 36 1.79086 36 4V24C36 30.6274 30.6274 36 24 36H4C1.79086 36 0 34.2091 0 32V4Z" fill="#DC3845"/>
<path d="M18 11.8292C17.092 10.9943 15.9035 10.5309 14.67 10.5309C14.0171 10.5316 13.3708 10.6614 12.7683 10.9128C12.1658 11.1642 11.6189 11.5323 11.1592 11.9959C9.19836 13.9651 9.19919 17.0451 11.1609 19.0059L17.2709 25.1159C17.4125 25.3651 17.6859 25.5259 18 25.5259C18.129 25.5246 18.2559 25.4931 18.3706 25.4339C18.4852 25.3748 18.5843 25.2895 18.66 25.1851L24.8392 19.0059C26.8009 17.0442 26.8009 13.9651 24.8375 11.9926C24.378 11.5298 23.8316 11.1625 23.2297 10.9116C22.6277 10.6608 21.9821 10.5314 21.33 10.5309C20.0965 10.5311 18.9081 10.9944 18 11.8292ZM23.6592 13.1709C24.9617 14.4801 24.9625 16.5251 23.6609 17.8276L18 23.4884L12.3392 17.8276C11.0375 16.5251 11.0384 14.4801 12.3375 13.1742C12.9709 12.5442 13.7992 12.1976 14.67 12.1976C15.5409 12.1976 16.3659 12.5442 16.9942 13.1726L17.4109 13.5892C17.4882 13.6667 17.58 13.7281 17.6811 13.77C17.7822 13.812 17.8906 13.8336 18 13.8336C18.1095 13.8336 18.2178 13.812 18.3189 13.77C18.42 13.7281 18.5119 13.6667 18.5892 13.5892L19.0059 13.1726C20.2659 11.9151 22.4009 11.9184 23.6592 13.1709Z" fill="white"/>
</svg>
